<svg width="256" height="256"><path d="M 141.25153510924906 78.54459769399969 A 51.2 51.2 0 0 0 114.74846489075094 78.54459769399969 L 96.9417145876975 12.088900845311798 A 120 120 0 0 1 159.0582854123025 12.088900845311798 L 141.25153510924906 78.54459769399969" fill="#22bc61"></path><path cursor="pointer" d="M 141.1 105.3101344208477 A 0 0 0 0 0 141.1 105.3101344208477 L 137.2177143234622 90.82124702651168 A 15 15 0 0 1 144.9822856765378 90.82124702651168 L 141.1 105.3101344208477" display="none" fill="#bae223"></path><path d="M 164.20386719675125 91.79613280324877 A 51.2 51.2 0 0 0 141.25153510924906 78.54459769399969 L 159.0582854123025 12.088900845311798 A 120 120 0 0 1 212.8528137423857 43.14718625761431 L 164.20386719675125 91.79613280324877" fill="#2d95bd"></path><path cursor="pointer" d="M 141.1 105.3101344208477 A 0 0 0 0 0 141.1 105.3101344208477 L 144.9822856765378 90.82124702651168 A 15 15 0 0 1 151.7066017177982 94.70353270304949 L 141.1 105.3101344208477" display="none" fill="#fc6c25"></path><path d="M 177.4554023060003 114.74846489075094 A 51.2 51.2 0 0 0 164.20386719675125 91.79613280324877 L 212.8528137423857 43.14718625761431 A 120 120 0 0 1 243.9110991546882 96.9417145876975 L 177.4554023060003 114.74846489075094" fill="#3871ab"></path><path cursor="pointer" d="M 141.1 105.3101344208477 A 0 0 0 0 0 141.1 105.3101344208477 L 151.7066017177982 94.70353270304949 A 15 15 0 0 1 155.588887394336 101.4278487443099 L 141.1 105.3101344208477" display="none" fill="#9b2f48"></path><path d="M 177.4554023060003 141.25153510924906 A 51.2 51.2 0 0 0 177.4554023060003 114.74846489075094 L 243.9110991546882 96.9417145876975 A 120 120 0 0 1 243.9110991546882 159.0582854123025 L 177.4554023060003 141.25153510924906" fill="#3f4c9a"></path><path cursor="pointer" d="M 141.1 150.6898655791523 A 0 0 0 0 0 141.1 150.6898655791523 L 155.588887394336 154.5721512556901 A 15 15 0 0 1 151.7066017177982 161.2964672969505 L 141.1 150.6898655791523" display="none" fill="#2d95bd"></path><path d="M 164.20386719675125 164.20386719675122 A 51.2 51.2 0 0 0 177.4554023060003 141.25153510924906 L 243.9110991546882 159.0582854123025 A 120 120 0 0 1 212.8528137423857 212.8528137423857 L 164.20386719675125 164.20386719675122" fill="#554488"></path><path cursor="pointer" d="M 141.1 150.6898655791523 A 0 0 0 0 0 141.1 150.6898655791523 L 151.7066017177982 161.2964672969505 A 15 15 0 0 1 144.9822856765378 165.17875297348832 L 141.1 150.6898655791523" display="none" fill="#bae223"></path><path d="M 141.25153510924906 177.4554023060003 A 51.2 51.2 0 0 0 164.20386719675125 164.20386719675122 L 212.8528137423857 212.8528137423857 A 120 120 0 0 1 159.0582854123025 243.9110991546882 L 141.25153510924906 177.4554023060003" fill="#9b2f48"></path><path cursor="pointer" d="M 141.1 150.6898655791523 A 0 0 0 0 0 141.1 150.6898655791523 L 144.9822856765378 165.17875297348832 A 15 15 0 0 1 137.2177143234622 165.17875297348832 L 141.1 150.6898655791523" display="none" fill="#fc6c25"></path><path d="M 114.74846489075094 177.4554023060003 A 51.2 51.2 0 0 0 141.25153510924906 177.4554023060003 L 159.0582854123025 243.9110991546882 A 120 120 0 0 1 96.9417145876975 243.9110991546882 L 114.74846489075094 177.4554023060003" fill="#e24328"></path><path cursor="pointer" d="M 114.9 150.6898655791523 A 0 0 0 0 0 114.9 150.6898655791523 L 118.78228567653781 165.17875297348832 A 15 15 0 0 1 111.01771432346219 165.17875297348832 L 114.9 150.6898655791523" display="none" fill="#9b2f48"></path><path d="M 91.79613280324877 164.20386719675125 A 51.2 51.2 0 0 0 114.74846489075094 177.4554023060003 L 96.9417145876975 243.9110991546882 A 120 120 0 0 1 43.14718625761431 212.8528137423857 L 91.79613280324877 164.20386719675125" fill="#fc6c25"></path><path cursor="pointer" d="M 114.9 150.6898655791523 A 0 0 0 0 0 114.9 150.6898655791523 L 111.01771432346219 165.17875297348832 A 15 15 0 0 1 104.29339828220179 161.2964672969505 L 114.9 150.6898655791523" display="none" fill="#2d95bd"></path><path d="M 78.5445976939997 141.25153510924906 A 51.2 51.2 0 0 0 91.79613280324877 164.20386719675125 L 43.14718625761431 212.8528137423857 A 120 120 0 0 1 12.088900845311812 159.05828541230252 L 78.5445976939997 141.25153510924906" fill="#fca326"></path><path cursor="pointer" d="M 114.9 150.6898655791523 A 0 0 0 0 0 114.9 150.6898655791523 L 104.29339828220179 161.2964672969505 A 15 15 0 0 1 100.41111260566399 154.5721512556901 L 114.9 150.6898655791523" display="none" fill="#bae223"></path><path d="M 78.54459769399969 114.74846489075095 A 51.2 51.2 0 0 0 78.5445976939997 141.25153510924906 L 12.088900845311812 159.05828541230252 A 120 120 0 0 1 12.088900845311784 96.94171458769756 L 78.54459769399969 114.74846489075095" fill="#fdc743"></path><path cursor="pointer" d="M 114.89999999999999 105.3101344208477 A 0 0 0 0 0 114.89999999999999 105.3101344208477 L 100.41111260566396 101.4278487443099 A 15 15 0 0 1 104.29339828220178 94.70353270304949 L 114.89999999999999 105.3101344208477" display="none" fill="#fc6c25"></path><path d="M 91.79613280324875 91.79613280324877 A 51.2 51.2 0 0 0 78.54459769399969 114.74846489075095 L 12.088900845311784 96.94171458769756 A 120 120 0 0 1 43.14718625761428 43.14718625761431 L 91.79613280324875 91.79613280324877" fill="#ffe560"></path><path cursor="pointer" d="M 114.89999999999999 105.3101344208477 A 0 0 0 0 0 114.89999999999999 105.3101344208477 L 104.29339828220178 94.70353270304949 A 15 15 0 0 1 111.01771432346219 90.82124702651168 L 114.89999999999999 105.3101344208477" display="none" fill="#9b2f48"></path><path d="M 114.74846489075094 78.54459769399969 A 51.2 51.2 0 0 0 91.79613280324875 91.79613280324877 L 43.14718625761428 43.14718625761431 A 120 120 0 0 1 96.94171458769753 12.088900845311798 L 114.74846489075094 78.54459769399969" fill="#bae223"></path><path cursor="pointer" d="M 114.89999999999999 105.3101344208477 A 0 0 0 0 0 114.89999999999999 105.3101344208477 L 111.01771432346217 90.82124702651168 A 15 15 0 0 1 118.7822856765378 90.82124702651168 L 114.89999999999999 105.3101344208477" display="none" fill="#2d95bd"></path></svg>
